<svg width="24" height="24" viewBox="0 0 24 24" fill="none" xmlns="http://www.w3.org/2000/svg">
<path d="M14 12.25C13.2583 12.25 12.5333 12.0301 11.9166 11.618C11.2999 11.206 10.8193 10.6203 10.5355 9.93506C10.2516 9.24984 10.1774 8.49584 10.3221 7.76841C10.4668 7.04098 10.8239 6.3728 11.3484 5.84835C11.8728 5.3239 12.541 4.96675 13.2684 4.82206C13.9958 4.67736 14.7498 4.75162 15.4351 5.03545C16.1203 5.31928 16.706 5.79993 17.118 6.41661C17.5301 7.0333 17.75 7.75832 17.75 8.5C17.75 9.49456 17.3549 10.4484 16.6517 11.1517C15.9484 11.8549 14.9946 12.25 14 12.25ZM14 6.25C13.555 6.25 13.12 6.38196 12.75 6.62919C12.38 6.87643 12.0916 7.22783 11.9213 7.63896C11.751 8.0501 11.7064 8.5025 11.7932 8.93895C11.8801 9.37541 12.0943 9.77632 12.409 10.091C12.7237 10.4057 13.1246 10.62 13.561 10.7068C13.9975 10.7936 14.4499 10.749 14.861 10.5787C15.2722 10.4084 15.6236 10.12 15.8708 9.75003C16.118 9.38002 16.25 8.94501 16.25 8.5C16.25 7.90326 16.0129 7.33097 15.591 6.90901C15.169 6.48705 14.5967 6.25 14 6.25Z" fill="url(#paint0_linear_3_1483)"/>
<path d="M21 19.25C20.8019 19.2474 20.6126 19.1676 20.4725 19.0275C20.3324 18.8874 20.2526 18.6981 20.25 18.5C20.25 16.55 19.19 15.25 14 15.25C8.81 15.25 7.75 16.55 7.75 18.5C7.75 18.6989 7.67098 18.8897 7.53033 19.0303C7.38968 19.171 7.19891 19.25 7 19.25C6.80109 19.25 6.61032 19.171 6.46967 19.0303C6.32902 18.8897 6.25 18.6989 6.25 18.5C6.25 13.75 11.68 13.75 14 13.75C16.32 13.75 21.75 13.75 21.75 18.5C21.7474 18.6981 21.6676 18.8874 21.5275 19.0275C21.3874 19.1676 21.1981 19.2474 21 19.25Z" fill="url(#paint1_linear_3_1483)"/>
<path d="M8.32036 13.0599H8.00036C7.20471 12.983 6.4722 12.5931 5.96398 11.9762C5.45576 11.3592 5.21345 10.5655 5.29036 9.76989C5.36727 8.97424 5.75711 8.24173 6.3741 7.73351C6.9911 7.22529 7.78471 6.98298 8.58036 7.05989C8.68238 7.06428 8.78243 7.08945 8.87438 7.13386C8.96633 7.17828 9.04824 7.241 9.11509 7.31819C9.18194 7.39538 9.23232 7.48541 9.26315 7.58276C9.29399 7.6801 9.30461 7.78272 9.29438 7.88432C9.28416 7.98592 9.25329 8.08437 9.20367 8.17361C9.15406 8.26286 9.08674 8.34104 9.00584 8.40336C8.92495 8.46567 8.83218 8.51081 8.73322 8.53601C8.63427 8.56121 8.53121 8.56593 8.43036 8.54989C8.23515 8.53043 8.03802 8.5505 7.85074 8.60892C7.66347 8.66734 7.48988 8.7629 7.34036 8.88989C7.18849 9.0124 7.06252 9.16391 6.96981 9.3356C6.8771 9.50728 6.8195 9.69571 6.80036 9.88989C6.77968 10.0865 6.79834 10.2853 6.85524 10.4746C6.91215 10.6639 7.00616 10.8401 7.13181 10.9927C7.25746 11.1453 7.41222 11.2714 7.58709 11.3637C7.76196 11.4559 7.95344 11.5124 8.15036 11.5299C8.4759 11.5577 8.8018 11.4806 9.08036 11.3099C9.2501 11.2051 9.4545 11.1721 9.6486 11.218C9.8427 11.264 10.0106 11.3852 10.1154 11.5549C10.2201 11.7246 10.2532 11.929 10.2072 12.1231C10.1613 12.3172 10.0401 12.4851 9.87036 12.5899C9.40656 12.8857 8.87035 13.0483 8.32036 13.0599Z" fill="url(#paint2_linear_3_1483)"/>
<path d="M3 18.5C2.80189 18.4974 2.61263 18.4176 2.47253 18.2775C2.33244 18.1374 2.25259 17.9481 2.25 17.75C2.25 15.05 2.97 13.25 6.5 13.25C6.69891 13.25 6.88968 13.329 7.03033 13.4697C7.17098 13.6103 7.25 13.8011 7.25 14C7.25 14.1989 7.17098 14.3897 7.03033 14.5303C6.88968 14.671 6.69891 14.75 6.5 14.75C4.15 14.75 3.75 15.5 3.75 17.75C3.74741 17.9481 3.66756 18.1374 3.52747 18.2775C3.38737 18.4176 3.19811 18.4974 3 18.5Z" fill="url(#paint3_linear_3_1483)"/>
<defs>
<linearGradient id="paint0_linear_3_1483" x1="14" y1="4.75" x2="14" y2="12.25" gradientUnits="userSpaceOnUse">
<stop stop-color="#EF4D62"/>
<stop offset="1" stop-color="#F87D3C"/>
</linearGradient>
<linearGradient id="paint1_linear_3_1483" x1="14" y1="13.75" x2="14" y2="19.25" gradientUnits="userSpaceOnUse">
<stop stop-color="#EF4D62"/>
<stop offset="1" stop-color="#F87D3C"/>
</linearGradient>
<linearGradient id="paint2_linear_3_1483" x1="7.75191" y1="7.0459" x2="7.75191" y2="13.0599" gradientUnits="userSpaceOnUse">
<stop stop-color="#EF4D62"/>
<stop offset="1" stop-color="#F87D3C"/>
</linearGradient>
<linearGradient id="paint3_linear_3_1483" x1="4.75" y1="13.25" x2="4.75" y2="18.5" gradientUnits="userSpaceOnUse">
<stop stop-color="#EF4D62"/>
<stop offset="1" stop-color="#F87D3C"/>
</linearGradient>
</defs>
</svg>
